<svg width="38" height="38" viewBox="0 0 38 38" fill="none" xmlns="http://www.w3.org/2000/svg">
<path d="M19.0003 17.4167C17.3206 17.4167 15.7097 16.7494 14.522 15.5617C13.3343 14.3739 12.667 12.763 12.667 11.0833C12.667 9.40363 13.3343 7.79272 14.522 6.60499C15.7097 5.41726 17.3206 4.75 19.0003 4.75C20.68 4.75 22.2909 5.41726 23.4787 6.60499C24.6664 7.79272 25.3337 9.40363 25.3337 11.0833C25.3337 12.763 24.6664 14.3739 23.4787 15.5617C22.2909 16.7494 20.68 17.4167 19.0003 17.4167Z" stroke="white" stroke-width="4" stroke-linecap="round"/>
<path d="M6.3335 33.2498V31.6665C6.3335 29.147 7.33439 26.7306 9.11598 24.949C10.8976 23.1674 13.3139 22.1665 15.8335 22.1665H22.1668C24.6864 22.1665 27.1027 23.1674 28.8843 24.949C30.6659 26.7306 31.6668 29.147 31.6668 31.6665V33.2498" stroke="white" stroke-width="4" stroke-linecap="round"/>
</svg>
