<svg width="44" height="45" viewBox="0 0 44 45" fill="none" xmlns="http://www.w3.org/2000/svg">
<ellipse cx="22" cy="22.5" rx="22" ry="22.5" fill="#7E92E3"/>
<g clip-path="url(#clip0_405_1230)">
<path d="M22.2106 25.0862C22.4399 25.0862 22.664 25.0167 22.8546 24.8864C23.0452 24.7562 23.1937 24.5711 23.2814 24.3545C23.3691 24.1379 23.3921 23.8995 23.3474 23.6696C23.3027 23.4397 23.1923 23.2285 23.0302 23.0627C22.8681 22.8969 22.6616 22.784 22.4368 22.7383C22.2119 22.6925 21.9789 22.716 21.7671 22.8057C21.5553 22.8955 21.3743 23.0474 21.247 23.2423C21.1196 23.4372 21.0516 23.6664 21.0516 23.9009C21.0516 24.2152 21.1738 24.5167 21.3911 24.739C21.6085 24.9613 21.9033 25.0862 22.2106 25.0862ZM28.0057 25.0862C28.2349 25.0862 28.459 25.0167 28.6496 24.8864C28.8402 24.7562 28.9887 24.5711 29.0764 24.3545C29.1642 24.1379 29.1871 23.8995 29.1424 23.6696C29.0977 23.4397 28.9873 23.2285 28.8252 23.0627C28.6631 22.8969 28.4566 22.784 28.2318 22.7383C28.007 22.6925 27.7739 22.716 27.5621 22.8057C27.3504 22.8955 27.1693 23.0474 27.042 23.2423C26.9146 23.4372 26.8467 23.6664 26.8467 23.9009C26.8467 24.2152 26.9688 24.5167 27.1861 24.739C27.4035 24.9613 27.6983 25.0862 28.0057 25.0862ZM22.2106 29.8276C22.4399 29.8276 22.664 29.7581 22.8546 29.6278C23.0452 29.4976 23.1937 29.3124 23.2814 29.0958C23.3691 28.8793 23.3921 28.6409 23.3474 28.411C23.3027 28.181 23.1923 27.9698 23.0302 27.8041C22.8681 27.6383 22.6616 27.5254 22.4368 27.4797C22.2119 27.4339 21.9789 27.4574 21.7671 27.5471C21.5553 27.6368 21.3743 27.7888 21.247 27.9837C21.1196 28.1786 21.0516 28.4078 21.0516 28.6422C21.0516 28.9566 21.1738 29.2581 21.3911 29.4804C21.6085 29.7027 21.9033 29.8276 22.2106 29.8276ZM28.0057 29.8276C28.2349 29.8276 28.459 29.7581 28.6496 29.6278C28.8402 29.4976 28.9887 29.3124 29.0764 29.0958C29.1642 28.8793 29.1871 28.6409 29.1424 28.411C29.0977 28.181 28.9873 27.9698 28.8252 27.8041C28.6631 27.6383 28.4566 27.5254 28.2318 27.4797C28.007 27.4339 27.7739 27.4574 27.5621 27.5471C27.3504 27.6368 27.1693 27.7888 27.042 27.9837C26.9146 28.1786 26.8467 28.4078 26.8467 28.6422C26.8467 28.9566 26.9688 29.2581 27.1861 29.4804C27.4035 29.7027 27.6983 29.8276 28.0057 29.8276ZM16.4156 25.0862C16.6449 25.0862 16.8689 25.0167 17.0595 24.8864C17.2501 24.7562 17.3987 24.5711 17.4864 24.3545C17.5741 24.1379 17.5971 23.8995 17.5524 23.6696C17.5076 23.4397 17.3973 23.2285 17.2352 23.0627C17.0731 22.8969 16.8666 22.784 16.6417 22.7383C16.4169 22.6925 16.1839 22.716 15.9721 22.8057C15.7603 22.8955 15.5793 23.0474 15.4519 23.2423C15.3246 23.4372 15.2566 23.6664 15.2566 23.9009C15.2566 24.2152 15.3787 24.5167 15.5961 24.739C15.8134 24.9613 16.1082 25.0862 16.4156 25.0862ZM30.3237 13.2328H29.1647V12.0474C29.1647 11.733 29.0426 11.4315 28.8252 11.2092C28.6079 10.9869 28.3131 10.8621 28.0057 10.8621C27.6983 10.8621 27.4035 10.9869 27.1861 11.2092C26.9688 11.4315 26.8467 11.733 26.8467 12.0474V13.2328H17.5746V12.0474C17.5746 11.733 17.4525 11.4315 17.2352 11.2092C17.0178 10.9869 16.723 10.8621 16.4156 10.8621C16.1082 10.8621 15.8134 10.9869 15.5961 11.2092C15.3787 11.4315 15.2566 11.733 15.2566 12.0474V13.2328H14.0976C13.1755 13.2328 12.2911 13.6074 11.639 14.2743C10.9869 14.9412 10.6206 15.8457 10.6206 16.7888V31.0129C10.6206 31.956 10.9869 32.8605 11.639 33.5274C12.2911 34.1943 13.1755 34.569 14.0976 34.569H30.3237C31.2458 34.569 32.1302 34.1943 32.7823 33.5274C33.4344 32.8605 33.8007 31.956 33.8007 31.0129V16.7888C33.8007 15.8457 33.4344 14.9412 32.7823 14.2743C32.1302 13.6074 31.2458 13.2328 30.3237 13.2328ZM31.4827 31.0129C31.4827 31.3273 31.3606 31.6288 31.1432 31.8511C30.9259 32.0734 30.6311 32.1983 30.3237 32.1983H14.0976C13.7902 32.1983 13.4954 32.0734 13.2781 31.8511C13.0607 31.6288 12.9386 31.3273 12.9386 31.0129V20.3448H31.4827V31.0129ZM31.4827 17.9741H12.9386V16.7888C12.9386 16.4744 13.0607 16.1729 13.2781 15.9506C13.4954 15.7283 13.7902 15.6034 14.0976 15.6034H30.3237C30.6311 15.6034 30.9259 15.7283 31.1432 15.9506C31.3606 16.1729 31.4827 16.4744 31.4827 16.7888V17.9741ZM16.4156 29.8276C16.6449 29.8276 16.8689 29.7581 17.0595 29.6278C17.2501 29.4976 17.3987 29.3124 17.4864 29.0958C17.5741 28.8793 17.5971 28.6409 17.5524 28.411C17.5076 28.181 17.3973 27.9698 17.2352 27.8041C17.0731 27.6383 16.8666 27.5254 16.6417 27.4797C16.4169 27.4339 16.1839 27.4574 15.9721 27.5471C15.7603 27.6368 15.5793 27.7888 15.4519 27.9837C15.3246 28.1786 15.2566 28.4078 15.2566 28.6422C15.2566 28.9566 15.3787 29.2581 15.5961 29.4804C15.8134 29.7027 16.1082 29.8276 16.4156 29.8276Z" fill="white"/>
</g>
<defs>
<clipPath id="clip0_405_1230">
<rect width="27.8161" height="28.4483" fill="white" transform="translate(6.06885 6.20679)"/>
</clipPath>
</defs>
</svg>
