<svg width="44" height="45" viewBox="0 0 44 45" fill="none" xmlns="http://www.w3.org/2000/svg">
<ellipse cx="22" cy="22.5" rx="22" ry="22.5" fill="#7E92E3"/>
<path d="M23.8747 23.875H26.6247C26.9894 23.875 27.3391 24.0199 27.597 24.2777C27.8549 24.5356 27.9997 24.8853 27.9997 25.25C27.9997 25.6147 27.8549 25.9644 27.597 26.2223C27.3391 26.4801 26.9894 26.625 26.6247 26.625H22.4997C22.319 26.6255 22.14 26.5903 21.9729 26.5214C21.8058 26.4525 21.654 26.3513 21.5262 26.2235C21.3984 26.0957 21.2972 25.9439 21.2283 25.7768C21.1594 25.6098 21.1242 25.4307 21.1247 25.25V19.75C21.1247 19.3853 21.2696 19.0356 21.5274 18.7777C21.7853 18.5199 22.135 18.375 22.4997 18.375C22.8644 18.375 23.2141 18.5199 23.472 18.7777C23.7299 19.0356 23.8747 19.3853 23.8747 19.75V23.875ZM14.0696 18.1839C13.7554 18.0382 13.483 17.8157 13.2774 17.537C13.0719 17.2583 12.9398 16.9323 12.8934 16.5891C12.8471 16.2459 12.8878 15.8965 13.012 15.5733C13.1362 15.25 13.3398 14.9632 13.604 14.7393C13.8682 14.5154 14.1845 14.3616 14.5238 14.2922C14.8631 14.2228 15.2144 14.2399 15.5453 14.3419C15.8762 14.444 16.1761 14.6278 16.4173 14.8763C16.6586 15.1248 16.8333 15.4301 16.9255 15.7639C17.421 15.4725 17.9387 15.2205 18.4737 15.0104C17.8724 14.5925 17.4202 13.9935 17.183 13.3007C16.9459 12.6079 16.9362 11.8575 17.1553 11.1588C17.3745 10.4601 17.811 9.84959 18.4014 9.41631C18.9917 8.98303 19.7049 8.74959 20.4372 8.75H24.5622C25.2945 8.74959 26.0078 8.98303 26.5981 9.41631C27.1884 9.84959 27.625 10.4601 27.8441 11.1588C28.0632 11.8575 28.0535 12.6079 27.8164 13.3007C27.5792 13.9935 27.1271 14.5925 26.5257 15.0104C27.062 15.2221 27.5803 15.4737 28.074 15.7639C28.1661 15.4301 28.3409 15.1248 28.5821 14.8763C28.8233 14.6278 29.1232 14.444 29.4541 14.3419C29.785 14.2399 30.1363 14.2228 30.4756 14.2922C30.8149 14.3616 31.1312 14.5154 31.3955 14.7393C31.6597 14.9632 31.8633 15.25 31.9874 15.5733C32.1116 15.8965 32.1524 16.2459 32.106 16.5891C32.0596 16.9323 31.9275 17.2583 31.722 17.537C31.5164 17.8157 31.244 18.0382 30.9298 18.1839C32.2744 19.7883 33.1333 21.743 33.4056 23.8186C33.6779 25.8941 33.3523 28.0043 32.467 29.9012C31.5817 31.7982 30.1736 33.4031 28.4079 34.5276C26.6422 35.6521 24.5924 36.2494 22.499 36.2494C20.4057 36.2494 18.3558 35.6521 16.5902 34.5276C14.8245 33.4031 13.4163 31.7982 12.5311 29.9012C11.6458 28.0043 11.3202 25.8941 11.5925 23.8186C11.8648 21.743 12.7236 19.7883 14.0682 18.1839H14.0696ZM22.4997 33.5C23.5831 33.5 24.6559 33.2866 25.6569 32.872C26.6578 32.4574 27.5673 31.8497 28.3334 31.0836C29.0994 30.3175 29.7071 29.4081 30.1217 28.4071C30.5363 27.4062 30.7497 26.3334 30.7497 25.25C30.7497 24.1666 30.5363 23.0938 30.1217 22.0929C29.7071 21.0919 29.0994 20.1825 28.3334 19.4164C27.5673 18.6503 26.6578 18.0426 25.6569 17.628C24.6559 17.2134 23.5831 17 22.4997 17C20.3117 17 18.2133 17.8692 16.6661 19.4164C15.1189 20.9635 14.2497 23.062 14.2497 25.25C14.2497 27.438 15.1189 29.5365 16.6661 31.0836C18.2133 32.6308 20.3117 33.5 22.4997 33.5ZM20.4372 11.5C20.2549 11.5 20.08 11.5724 19.9511 11.7014C19.8222 11.8303 19.7497 12.0052 19.7497 12.1875C19.7497 12.3698 19.8222 12.5447 19.9511 12.6736C20.08 12.8026 20.2549 12.875 20.4372 12.875H24.5622C24.7446 12.875 24.9194 12.8026 25.0484 12.6736C25.1773 12.5447 25.2497 12.3698 25.2497 12.1875C25.2497 12.0052 25.1773 11.8303 25.0484 11.7014C24.9194 11.5724 24.7446 11.5 24.5622 11.5H20.4372Z" fill="white"/>
</svg>
