<svg width="66" height="67" viewBox="0 0 66 67" fill="none" xmlns="http://www.w3.org/2000/svg">
<ellipse cx="33" cy="33.076" rx="32.9383" ry="33.076" fill="#7E92E3"/>
<path d="M28.7443 28.5946V17H32.1591V30.2793C32.1591 32.1126 30.6301 33.6486 28.7443 33.6486V48.3153C28.7443 49.2072 27.9798 50 27.0114 50H23.5967C22.6793 50 21.9148 49.2072 21.9148 48.3153V33.6486C20.029 33.6486 18.5 32.1126 18.5 30.2793V17H21.9148V28.5946H23.5967V17H27.0114V28.5946H28.7443ZM37.3067 33.6486V21.955C37.3067 19.2297 39.6002 17 42.4033 17C45.2065 17 47.5 19.2297 47.5 21.955V48.3153C47.5 49.2072 46.7865 50 45.8691 50H42.4033C41.4859 50 40.6705 49.2072 40.6705 48.3153V33.6486H37.3067Z" fill="white"/>
</svg>
