<svg width="45" height="46" viewBox="0 0 45 46" fill="none" xmlns="http://www.w3.org/2000/svg">
<ellipse cx="22.5" cy="23" rx="22.5" ry="23" fill="#7E92E3"/>
<path d="M25.25 36H18.75C18.1755 35.9994 17.6248 35.771 17.2186 35.3648C16.8124 34.9586 16.5839 34.4078 16.5833 33.8333V28.4167H11.1667C10.5922 28.4161 10.0414 28.1876 9.63524 27.7814C9.22903 27.3752 9.00057 26.8245 9 26.25V19.75C9.00057 19.1755 9.22903 18.6248 9.63524 18.2186C10.0414 17.8124 10.5922 17.5839 11.1667 17.5833H16.5833V12.1667C16.5839 11.5922 16.8124 11.0414 17.2186 10.6352C17.6248 10.229 18.1755 10.0006 18.75 10H25.25C25.8245 10.0006 26.3752 10.229 26.7814 10.6352C27.1876 11.0414 27.4161 11.5922 27.4167 12.1667V17.5833H32.8333C33.4078 17.5839 33.9586 17.8124 34.3648 18.2186C34.771 18.6248 34.9994 19.1755 35 19.75V26.25C34.9991 26.8244 34.7706 27.375 34.3645 27.7811C33.9583 28.1873 33.4077 28.4158 32.8333 28.4167H27.4167V33.8333C27.4158 34.4077 27.1873 34.9583 26.7811 35.3645C26.375 35.7706 25.8244 35.9991 25.25 36ZM11.1667 19.75V26.25H18.75V33.8333H25.25V26.25H32.8333V19.75H25.25V12.1667H18.75V19.75H11.1667Z" fill="white"/>
</svg>
