<svg width="66" height="67" viewBox="0 0 66 67" fill="none" xmlns="http://www.w3.org/2000/svg">
<ellipse cx="33" cy="33.076" rx="32.9383" ry="33.076" fill="#7E92E3"/>
<path d="M47.6488 24.2109C46.014 20.8748 42.6273 19 39.1468 19C37.512 19 35.8538 19.4135 34.3538 20.2801L32.7425 21.209C31.8519 21.7244 31.5648 22.8346 32.098 23.6955L34.0199 26.8051C34.3714 27.3715 34.9925 27.6887 35.6312 27.6887C35.9593 27.6887 36.2874 27.6037 36.5921 27.4338L38.2034 26.5049C38.5023 26.3293 38.8363 26.25 39.1644 26.25C39.8031 26.25 40.4241 26.5672 40.7757 27.1336C41.3089 27.9889 41.0159 29.1047 40.1312 29.6201L19.4124 41.5203C18.5218 42.0357 18.2347 43.1459 18.7679 44.0068L20.6898 47.1164C21.0413 47.6828 21.6624 48 22.3011 48C22.6292 48 22.9574 47.915 23.262 47.7451L43.6116 36.0488C47.8128 33.6189 49.7406 28.4873 47.6488 24.2109ZM37.2366 24.9473L37.0902 25.0322L35.889 21.5488C36.4574 21.2826 37.0492 21.09 37.6644 20.9711L38.8714 24.4715C38.2972 24.5168 37.7347 24.6584 37.2366 24.9473ZM27.0472 43.4574L23.5023 41.2768L25.307 40.2402L28.8519 42.4209L27.0472 43.4574ZM33.346 39.8381L29.8011 37.6574L31.6058 36.6209L35.1507 38.8016L33.346 39.8381ZM39.8441 36.1055L36.2991 33.9248L38.1038 32.8883L41.6488 35.0689L39.8441 36.1055ZM41.0394 24.9303L43.7347 22.3248C44.2269 22.693 44.6722 23.1234 45.0589 23.6049L42.3812 26.1934C42.0472 25.6666 41.5784 25.2361 41.0394 24.9303ZM45.8499 31.0361L42.3636 29.9146C42.5511 29.6145 42.7034 29.2973 42.7972 28.9461C42.8616 28.6912 42.8968 28.4307 42.9027 28.1758L46.4417 29.3143C46.3187 29.9033 46.1195 30.4811 45.8499 31.0361Z" fill="white"/>
</svg>
