<svg width="66" height="67" viewBox="0 0 66 67" fill="none" xmlns="http://www.w3.org/2000/svg">
<ellipse cx="33" cy="33.076" rx="32.9383" ry="33.076" fill="#7E92E3"/>
<path d="M44.6175 21.3896L44.6182 21.3906C46.5718 24.1146 46.1706 27.0878 45.5584 29.3215C45.3414 30.1131 45.0636 30.9234 44.8254 31.618C44.7345 31.883 44.6494 32.1312 44.5757 32.3551C44.2707 33.2809 44.1463 33.8281 44.1463 34.166C44.1463 36.6273 43.9246 39.5119 43.3173 41.8443C43.0172 42.9971 42.5854 44.1657 41.9311 45.0899C41.2619 46.035 40.178 46.9513 38.6351 46.9513C37.7118 46.9513 36.8692 46.6967 36.1499 46.2016C35.4549 45.7233 34.9754 45.0905 34.635 44.4765C33.9889 43.311 33.6651 41.8599 33.4226 40.7595C33.412 40.7114 33.4015 40.6639 33.3912 40.6169C33.1303 39.432 32.9451 38.5909 32.6681 37.999C32.6158 37.8874 32.5708 37.8092 32.536 37.7561C32.4848 37.8159 32.4086 37.921 32.3155 38.0964C31.9868 38.7159 31.7364 39.6255 31.4216 40.8511C31.4073 40.9066 31.3928 40.963 31.3782 41.0202C31.107 42.079 30.7688 43.3993 30.2352 44.4521C29.6547 45.5976 28.5345 47 26.5282 47C24.967 47 23.904 46.0157 23.2738 45.0979C22.641 44.1762 22.209 43.0098 21.9021 41.8518C21.2807 39.508 21.0231 36.6149 21.0231 34.166C21.0231 33.8188 20.8988 33.2758 20.5945 32.3712C20.5169 32.1406 20.4256 31.8811 20.3276 31.6026C20.0909 30.9302 19.8151 30.1467 19.5991 29.389C18.9655 27.1671 18.5481 24.2469 20.4018 21.451M44.6175 21.3896L20.4018 21.451M44.6175 21.3896C43.5803 19.9453 42.4402 18.9492 41.1253 18.4338C39.7945 17.9121 38.5318 17.9802 37.4538 18.2061C36.7017 18.3638 35.8966 18.6384 35.2299 18.8658C35.0223 18.9367 34.828 19.0029 34.653 19.0596C33.815 19.3312 33.1357 19.4945 32.4823 19.4945C31.8517 19.4945 31.1781 19.3303 30.33 19.0509C30.1542 18.993 29.9593 18.9255 29.7511 18.8535C29.078 18.6204 28.2659 18.3393 27.5084 18.1768C26.4302 17.9456 25.1522 17.8678 23.8186 18.4061C22.4962 18.9398 21.3819 19.9726 20.4018 21.451M44.6175 21.3896L22.0687 22.5562L20.4018 21.451" stroke="white" stroke-width="4"/>
</svg>
